<svg width="16" height="15" viewBox="0 0 16 15" fill="none" xmlns="http://www.w3.org/2000/svg">
<path fill-rule="evenodd" clip-rule="evenodd" d="M8.293 0.793C8.48053 0.605529 8.73484 0.500214 9 0.500214C9.26516 0.500214 9.51947 0.605529 9.707 0.793L15.707 6.793C15.8945 6.98053 15.9998 7.23484 15.9998 7.5C15.9998 7.76516 15.8945 8.01947 15.707 8.207L9.707 14.207C9.5184 14.3892 9.2658 14.49 9.0036 14.4877C8.7414 14.4854 8.49059 14.3802 8.30518 14.1948C8.11977 14.0094 8.0146 13.7586 8.01233 13.4964C8.01005 13.2342 8.11084 12.9816 8.293 12.793L12.586 8.5H1C0.734784 8.5 0.48043 8.39464 0.292893 8.20711C0.105357 8.01957 0 7.76522 0 7.5C0 7.23478 0.105357 6.98043 0.292893 6.79289C0.48043 6.60536 0.734784 6.5 1 6.5H12.586L8.293 2.207C8.10553 2.01947 8.00021 1.76516 8.00021 1.5C8.00021 1.23484 8.10553 0.980528 8.293 0.793Z" fill="white"/>
</svg>
