<svg width="21" height="35" viewBox="0 0 21 35" fill="none" xmlns="http://www.w3.org/2000/svg">
<path fill-rule="evenodd" clip-rule="evenodd" d="M1.43155 33.2685C0.803521 32.6402 0.450714 31.7883 0.450714 30.9C0.450714 30.0117 0.803521 29.1598 1.43155 28.5316L12.4631 17.5L1.43155 6.46845C0.82132 5.83664 0.483657 4.99042 0.49129 4.11206C0.498922 3.2337 0.851239 2.39348 1.47236 1.77236C2.09347 1.15124 2.9337 0.798928 3.81206 0.791295C4.69041 0.783662 5.53663 1.12132 6.16845 1.73155L19.5684 15.1316C20.1965 15.7598 20.5493 16.6117 20.5493 17.5C20.5493 18.3883 20.1965 19.2402 19.5684 19.8685L6.16845 33.2685C5.54023 33.8965 4.6883 34.2493 3.8 34.2493C2.9117 34.2493 2.05977 33.8965 1.43155 33.2685Z" fill="#111928"/>
</svg>
